<?xml version="1.0" encoding="UTF-8"?>
<svg xmlns="http://www.w3.org/2000/svg" version="1.1" width="200" height="200" viewBox="0 0 200 200"><rect x="0" y="0" width="200" height="200" fill="#ffffff"/><g transform="scale(4.444)"><g transform="translate(0,0)"><path fill-rule="evenodd" d="M8 0L8 3L10 3L10 2L9 2L9 1L10 1L10 0ZM17 0L17 1L12 1L12 2L11 2L11 6L10 6L10 4L9 4L9 5L8 5L8 9L7 9L7 8L6 8L6 9L5 9L5 8L2 8L2 9L1 9L1 10L0 10L0 15L1 15L1 16L0 16L0 17L3 17L3 18L5 18L5 19L4 19L4 22L1 22L1 23L0 23L0 25L1 25L1 27L2 27L2 28L0 28L0 30L1 30L1 29L2 29L2 31L4 31L4 30L5 30L5 32L4 32L4 33L3 33L3 32L0 32L0 34L1 34L1 33L2 33L2 34L4 34L4 35L1 35L1 36L0 36L0 37L1 37L1 36L3 36L3 37L5 37L5 34L6 34L6 35L8 35L8 34L9 34L9 35L10 35L10 36L6 36L6 37L8 37L8 38L9 38L9 40L8 40L8 43L10 43L10 39L11 39L11 41L12 41L12 36L11 36L11 33L12 33L12 35L16 35L16 34L19 34L19 32L20 32L20 34L21 34L21 35L18 35L18 36L17 36L17 37L14 37L14 38L13 38L13 39L15 39L15 40L16 40L16 41L14 41L14 43L12 43L12 45L13 45L13 44L14 44L14 45L15 45L15 44L14 44L14 43L16 43L16 44L17 44L17 45L20 45L20 44L21 44L21 45L22 45L22 44L24 44L24 45L26 45L26 43L28 43L28 45L30 45L30 43L31 43L31 44L33 44L33 43L31 43L31 42L32 42L32 40L33 40L33 42L34 42L34 45L37 45L37 42L34 42L34 41L35 41L35 40L36 40L36 41L38 41L38 43L40 43L40 42L41 42L41 44L43 44L43 45L44 45L44 44L43 44L43 42L45 42L45 40L44 40L44 38L45 38L45 37L44 37L44 36L43 36L43 33L44 33L44 34L45 34L45 33L44 33L44 32L43 32L43 31L44 31L44 30L45 30L45 29L44 29L44 30L43 30L43 29L41 29L41 28L43 28L43 26L45 26L45 24L44 24L44 22L45 22L45 21L44 21L44 22L43 22L43 21L42 21L42 20L43 20L43 19L44 19L44 20L45 20L45 19L44 19L44 18L45 18L45 15L44 15L44 14L45 14L45 13L43 13L43 12L44 12L44 10L45 10L45 8L42 8L42 9L40 9L40 8L37 8L37 6L36 6L36 8L37 8L37 9L36 9L36 10L37 10L37 11L35 11L35 10L33 10L33 9L32 9L32 8L29 8L29 9L27 9L27 8L28 8L28 7L29 7L29 6L30 6L30 7L31 7L31 6L32 6L32 7L33 7L33 6L34 6L34 9L35 9L35 6L34 6L34 5L37 5L37 3L36 3L36 1L37 1L37 0L36 0L36 1L35 1L35 4L33 4L33 3L34 3L34 2L33 2L33 3L31 3L31 2L32 2L32 0L30 0L30 1L31 1L31 2L30 2L30 3L29 3L29 0L28 0L28 3L26 3L26 1L27 1L27 0L26 0L26 1L25 1L25 0L22 0L22 1L23 1L23 2L24 2L24 1L25 1L25 3L24 3L24 4L22 4L22 2L21 2L21 1L20 1L20 0ZM17 1L17 2L14 2L14 3L13 3L13 2L12 2L12 4L15 4L15 5L16 5L16 4L15 4L15 3L17 3L17 5L20 5L20 3L21 3L21 2L20 2L20 1L19 1L19 2L18 2L18 1ZM19 2L19 3L20 3L20 2ZM25 3L25 4L26 4L26 6L25 6L25 10L24 10L24 11L25 11L25 10L26 10L26 6L27 6L27 7L28 7L28 6L29 6L29 5L27 5L27 4L26 4L26 3ZM28 3L28 4L29 4L29 3ZM30 3L30 4L31 4L31 5L30 5L30 6L31 6L31 5L32 5L32 4L31 4L31 3ZM13 5L13 8L12 8L12 9L13 9L13 8L14 8L14 11L15 11L15 10L16 10L16 8L17 8L17 7L18 7L18 6L17 6L17 7L16 7L16 6L15 6L15 7L14 7L14 5ZM21 5L21 8L24 8L24 5ZM9 6L9 8L10 8L10 9L8 9L8 10L7 10L7 9L6 9L6 10L5 10L5 12L8 12L8 11L10 11L10 13L9 13L9 14L8 14L8 13L6 13L6 14L5 14L5 15L4 15L4 16L5 16L5 18L7 18L7 17L8 17L8 19L9 19L9 20L10 20L10 18L9 18L9 17L10 17L10 16L11 16L11 18L12 18L12 19L11 19L11 21L9 21L9 22L12 22L12 20L13 20L13 17L14 17L14 16L15 16L15 17L16 17L16 15L15 15L15 14L17 14L17 15L18 15L18 14L19 14L19 13L21 13L21 14L20 14L20 16L19 16L19 18L18 18L18 17L17 17L17 19L15 19L15 18L14 18L14 20L15 20L15 22L14 22L14 21L13 21L13 22L14 22L14 24L13 24L13 23L12 23L12 24L11 24L11 23L9 23L9 25L5 25L5 26L4 26L4 24L3 24L3 23L1 23L1 25L2 25L2 24L3 24L3 26L2 26L2 27L3 27L3 28L2 28L2 29L4 29L4 27L6 27L6 28L5 28L5 30L7 30L7 31L6 31L6 32L7 32L7 31L8 31L8 27L9 27L9 26L10 26L10 28L9 28L9 29L10 29L10 30L9 30L9 31L10 31L10 33L9 33L9 32L8 32L8 33L6 33L6 34L8 34L8 33L9 33L9 34L10 34L10 33L11 33L11 31L12 31L12 33L13 33L13 34L14 34L14 33L15 33L15 32L16 32L16 33L18 33L18 32L17 32L17 30L18 30L18 31L19 31L19 30L20 30L20 32L21 32L21 34L22 34L22 36L24 36L24 33L23 33L23 32L22 32L22 31L24 31L24 30L23 30L23 28L25 28L25 27L23 27L23 28L21 28L21 29L18 29L18 28L19 28L19 27L18 27L18 28L17 28L17 27L16 27L16 28L14 28L14 27L15 27L15 26L14 26L14 24L15 24L15 25L17 25L17 26L19 26L19 25L20 25L20 27L21 27L21 26L24 26L24 25L20 25L20 24L19 24L19 23L20 23L20 21L19 21L19 20L18 20L18 19L19 19L19 18L20 18L20 16L21 16L21 19L20 19L20 20L25 20L25 21L26 21L26 22L25 22L25 24L26 24L26 26L28 26L28 27L26 27L26 29L25 29L25 32L26 32L26 31L27 31L27 28L29 28L29 30L28 30L28 33L27 33L27 35L29 35L29 34L28 34L28 33L31 33L31 32L32 32L32 34L31 34L31 35L30 35L30 36L29 36L29 37L28 37L28 36L25 36L25 37L26 37L26 38L25 38L25 40L27 40L27 37L28 37L28 38L30 38L30 37L31 37L31 38L32 38L32 39L29 39L29 40L30 40L30 42L31 42L31 40L32 40L32 39L33 39L33 40L35 40L35 39L36 39L36 38L35 38L35 37L36 37L36 36L37 36L37 35L39 35L39 33L40 33L40 34L41 34L41 35L40 35L40 36L41 36L41 35L42 35L42 34L41 34L41 33L40 33L40 32L42 32L42 33L43 33L43 32L42 32L42 31L43 31L43 30L41 30L41 29L40 29L40 28L41 28L41 27L42 27L42 26L41 26L41 25L43 25L43 24L41 24L41 25L39 25L39 26L38 26L38 27L35 27L35 29L33 29L33 28L31 28L31 27L33 27L33 23L34 23L34 24L36 24L36 22L35 22L35 21L36 21L36 19L35 19L35 20L34 20L34 18L35 18L35 17L34 17L34 15L33 15L33 16L32 16L32 19L30 19L30 20L29 20L29 21L30 21L30 22L28 22L28 23L30 23L30 24L29 24L29 25L27 25L27 21L28 21L28 19L27 19L27 18L28 18L28 17L29 17L29 18L30 18L30 17L29 17L29 16L30 16L30 14L29 14L29 12L28 12L28 10L27 10L27 13L28 13L28 14L27 14L27 15L26 15L26 16L25 16L25 14L26 14L26 13L25 13L25 12L24 12L24 14L23 14L23 13L22 13L22 11L23 11L23 9L22 9L22 10L21 10L21 9L20 9L20 8L19 8L19 9L18 9L18 12L17 12L17 11L16 11L16 12L15 12L15 13L14 13L14 12L13 12L13 14L14 14L14 16L13 16L13 17L12 17L12 16L11 16L11 15L12 15L12 12L11 12L11 11L13 11L13 10L10 10L10 9L11 9L11 8L10 8L10 6ZM11 6L11 7L12 7L12 6ZM19 6L19 7L20 7L20 6ZM22 6L22 7L23 7L23 6ZM2 9L2 10L1 10L1 11L2 11L2 12L4 12L4 10L3 10L3 9ZM19 9L19 12L20 12L20 9ZM37 9L37 10L39 10L39 11L37 11L37 12L32 12L32 11L33 11L33 10L32 10L32 11L31 11L31 10L29 10L29 11L31 11L31 12L32 12L32 13L31 13L31 14L33 14L33 13L34 13L34 14L35 14L35 15L36 15L36 13L37 13L37 14L39 14L39 15L40 15L40 13L41 13L41 15L42 15L42 14L43 14L43 13L42 13L42 12L41 12L41 11L43 11L43 10L40 10L40 9ZM2 10L2 11L3 11L3 10ZM6 10L6 11L7 11L7 10ZM39 11L39 12L40 12L40 11ZM16 12L16 13L17 13L17 14L18 14L18 13L17 13L17 12ZM2 13L2 14L1 14L1 15L2 15L2 16L3 16L3 15L2 15L2 14L3 14L3 13ZM6 14L6 15L5 15L5 16L6 16L6 17L7 17L7 16L8 16L8 15L7 15L7 14ZM10 14L10 15L11 15L11 14ZM6 15L6 16L7 16L7 15ZM21 15L21 16L22 16L22 15ZM27 15L27 16L26 16L26 18L27 18L27 17L28 17L28 15ZM37 15L37 16L36 16L36 17L38 17L38 18L37 18L37 20L38 20L38 18L40 18L40 19L41 19L41 18L44 18L44 17L43 17L43 16L42 16L42 17L41 17L41 16L38 16L38 15ZM23 16L23 17L22 17L22 19L25 19L25 20L26 20L26 21L27 21L27 20L26 20L26 19L25 19L25 16ZM23 17L23 18L24 18L24 17ZM40 17L40 18L41 18L41 17ZM1 18L1 19L2 19L2 20L0 20L0 21L2 21L2 20L3 20L3 19L2 19L2 18ZM6 19L6 20L7 20L7 19ZM32 19L32 20L31 20L31 21L32 21L32 20L33 20L33 19ZM16 20L16 21L17 21L17 22L15 22L15 24L16 24L16 23L17 23L17 22L18 22L18 23L19 23L19 21L18 21L18 20ZM5 21L5 24L8 24L8 21ZM21 21L21 24L24 24L24 21ZM33 21L33 22L34 22L34 23L35 23L35 22L34 22L34 21ZM37 21L37 24L40 24L40 21ZM6 22L6 23L7 23L7 22ZM22 22L22 23L23 23L23 22ZM30 22L30 23L32 23L32 22ZM38 22L38 23L39 23L39 22ZM41 22L41 23L42 23L42 22ZM12 24L12 25L10 25L10 26L11 26L11 30L10 30L10 31L11 31L11 30L13 30L13 29L12 29L12 28L13 28L13 27L14 27L14 26L13 26L13 24ZM18 24L18 25L19 25L19 24ZM30 24L30 25L29 25L29 28L30 28L30 29L31 29L31 30L29 30L29 32L30 32L30 31L31 31L31 30L32 30L32 32L33 32L33 33L35 33L35 34L34 34L34 35L35 35L35 36L33 36L33 35L32 35L32 36L31 36L31 37L32 37L32 36L33 36L33 37L35 37L35 36L36 36L36 35L35 35L35 34L37 34L37 32L36 32L36 33L35 33L35 31L38 31L38 30L39 30L39 31L40 31L40 30L39 30L39 27L40 27L40 26L39 26L39 27L38 27L38 30L37 30L37 28L36 28L36 30L32 30L32 29L31 29L31 28L30 28L30 26L32 26L32 25L31 25L31 24ZM34 25L34 26L35 26L35 25ZM36 25L36 26L37 26L37 25ZM6 26L6 27L7 27L7 26ZM12 26L12 27L13 27L13 26ZM44 27L44 28L45 28L45 27ZM6 28L6 29L7 29L7 28ZM16 28L16 29L15 29L15 30L14 30L14 31L16 31L16 30L17 30L17 28ZM21 30L21 31L22 31L22 30ZM33 31L33 32L34 32L34 31ZM13 32L13 33L14 33L14 32ZM38 32L38 33L39 33L39 32ZM22 33L22 34L23 34L23 33ZM10 36L10 37L9 37L9 38L10 38L10 37L11 37L11 36ZM42 36L42 37L41 37L41 39L43 39L43 38L44 38L44 37L43 37L43 36ZM17 37L17 38L16 38L16 39L17 39L17 40L19 40L19 41L20 41L20 38L19 38L19 37ZM21 37L21 40L24 40L24 37ZM37 37L37 40L40 40L40 37ZM42 37L42 38L43 38L43 37ZM18 38L18 39L19 39L19 38ZM22 38L22 39L23 39L23 38ZM33 38L33 39L35 39L35 38ZM38 38L38 39L39 39L39 38ZM42 40L42 41L41 41L41 42L43 42L43 40ZM16 41L16 43L17 43L17 42L18 42L18 44L20 44L20 42L18 42L18 41ZM25 41L25 43L24 43L24 42L21 42L21 43L24 43L24 44L25 44L25 43L26 43L26 41ZM28 41L28 42L29 42L29 41ZM35 43L35 44L36 44L36 43ZM10 44L10 45L11 45L11 44ZM38 44L38 45L39 45L39 44ZM0 0L0 7L7 7L7 0ZM1 1L1 6L6 6L6 1ZM2 2L2 5L5 5L5 2ZM38 0L38 7L45 7L45 0ZM39 1L39 6L44 6L44 1ZM40 2L40 5L43 5L43 2ZM0 38L0 45L7 45L7 38ZM1 39L1 44L6 44L6 39ZM2 40L2 43L5 43L5 40Z" fill="#000000"/></g></g></svg>
