<?xml version="1.0" encoding="UTF-8"?>
<svg xmlns="http://www.w3.org/2000/svg" version="1.1" width="200" height="200" viewBox="0 0 200 200"><rect x="0" y="0" width="200" height="200" fill="#ffffff"/><g transform="scale(4.444)"><g transform="translate(0,0)"><path fill-rule="evenodd" d="M8 0L8 3L10 3L10 2L9 2L9 1L10 1L10 0ZM13 0L13 1L12 1L12 2L11 2L11 3L12 3L12 4L11 4L11 6L10 6L10 4L9 4L9 5L8 5L8 9L7 9L7 8L6 8L6 9L5 9L5 8L2 8L2 11L3 11L3 12L2 12L2 13L3 13L3 14L2 14L2 15L1 15L1 14L0 14L0 15L1 15L1 16L0 16L0 17L3 17L3 18L4 18L4 22L1 22L1 23L0 23L0 25L1 25L1 26L0 26L0 27L1 27L1 28L0 28L0 29L1 29L1 30L2 30L2 31L4 31L4 30L5 30L5 32L4 32L4 33L3 33L3 32L1 32L1 31L0 31L0 33L2 33L2 34L4 34L4 35L1 35L1 36L0 36L0 37L1 37L1 36L3 36L3 37L5 37L5 34L6 34L6 35L8 35L8 34L10 34L10 36L11 36L11 38L10 38L10 37L9 37L9 36L6 36L6 37L8 37L8 38L9 38L9 40L8 40L8 43L10 43L10 39L11 39L11 41L12 41L12 36L11 36L11 33L12 33L12 35L16 35L16 34L19 34L19 35L18 35L18 36L17 36L17 37L19 37L19 36L20 36L20 38L18 38L18 39L20 39L20 41L19 41L19 40L16 40L16 38L15 38L15 37L14 37L14 38L13 38L13 39L14 39L14 40L13 40L13 41L14 41L14 40L15 40L15 41L16 41L16 43L15 43L15 44L13 44L13 43L12 43L12 45L15 45L15 44L16 44L16 43L17 43L17 45L20 45L20 44L21 44L21 45L22 45L22 44L24 44L24 45L26 45L26 43L28 43L28 45L30 45L30 43L31 43L31 44L33 44L33 43L31 43L31 42L32 42L32 40L33 40L33 42L34 42L34 45L37 45L37 42L34 42L34 41L35 41L35 40L36 40L36 41L38 41L38 43L40 43L40 42L41 42L41 44L43 44L43 45L44 45L44 44L43 44L43 42L45 42L45 40L44 40L44 38L45 38L45 37L44 37L44 36L43 36L43 33L44 33L44 34L45 34L45 33L44 33L44 32L43 32L43 31L44 31L44 30L45 30L45 29L44 29L44 30L43 30L43 29L41 29L41 28L43 28L43 27L44 27L44 28L45 28L45 27L44 27L44 26L43 26L43 25L45 25L45 24L44 24L44 22L45 22L45 21L44 21L44 22L43 22L43 21L42 21L42 20L43 20L43 19L44 19L44 20L45 20L45 19L44 19L44 18L45 18L45 15L44 15L44 14L45 14L45 13L43 13L43 14L42 14L42 15L41 15L41 13L42 13L42 12L44 12L44 10L45 10L45 8L42 8L42 9L41 9L41 10L43 10L43 11L42 11L42 12L41 12L41 13L40 13L40 15L39 15L39 14L37 14L37 13L36 13L36 15L35 15L35 14L34 14L34 13L33 13L33 14L31 14L31 13L32 13L32 12L37 12L37 11L39 11L39 12L40 12L40 11L39 11L39 10L40 10L40 8L37 8L37 6L36 6L36 7L35 7L35 6L34 6L34 5L37 5L37 3L36 3L36 1L37 1L37 0L36 0L36 1L35 1L35 4L33 4L33 3L34 3L34 2L33 2L33 3L31 3L31 2L32 2L32 0L30 0L30 1L31 1L31 2L30 2L30 3L29 3L29 0L28 0L28 3L26 3L26 1L27 1L27 0L26 0L26 1L25 1L25 0L24 0L24 4L22 4L22 2L21 2L21 1L20 1L20 0L15 0L15 1L14 1L14 0ZM22 0L22 1L23 1L23 0ZM33 0L33 1L34 1L34 0ZM13 1L13 2L12 2L12 3L13 3L13 4L14 4L14 5L13 5L13 8L14 8L14 11L15 11L15 10L16 10L16 8L17 8L17 9L18 9L18 10L17 10L17 11L16 11L16 12L15 12L15 13L14 13L14 12L13 12L13 14L14 14L14 16L13 16L13 17L12 17L12 16L10 16L10 13L11 13L11 15L12 15L12 12L10 12L10 9L11 9L11 8L10 8L10 6L9 6L9 8L10 8L10 9L8 9L8 10L7 10L7 9L6 9L6 10L5 10L5 11L6 11L6 12L4 12L4 13L5 13L5 14L4 14L4 16L5 16L5 18L7 18L7 17L8 17L8 20L10 20L10 17L11 17L11 18L12 18L12 19L11 19L11 21L9 21L9 22L12 22L12 20L13 20L13 21L14 21L14 20L15 20L15 19L16 19L16 20L18 20L18 21L19 21L19 23L18 23L18 22L17 22L17 21L15 21L15 22L13 22L13 23L12 23L12 24L11 24L11 23L9 23L9 26L8 26L8 28L7 28L7 27L6 27L6 26L7 26L7 25L5 25L5 26L4 26L4 24L3 24L3 23L1 23L1 25L2 25L2 24L3 24L3 26L1 26L1 27L3 27L3 28L2 28L2 29L4 29L4 27L6 27L6 28L5 28L5 30L7 30L7 29L10 29L10 30L9 30L9 32L8 32L8 33L6 33L6 34L8 34L8 33L9 33L9 32L11 32L11 31L13 31L13 32L12 32L12 33L13 33L13 34L14 34L14 33L15 33L15 32L16 32L16 33L19 33L19 34L22 34L22 36L23 36L23 34L25 34L25 30L23 30L23 29L22 29L22 31L21 31L21 29L19 29L19 25L20 25L20 27L21 27L21 28L22 28L22 25L20 25L20 24L19 24L19 23L20 23L20 21L19 21L19 20L18 20L18 19L19 19L19 18L21 18L21 19L20 19L20 20L21 20L21 19L23 19L23 20L25 20L25 21L26 21L26 22L25 22L25 24L26 24L26 26L28 26L28 28L27 28L27 27L23 27L23 28L26 28L26 29L28 29L28 30L26 30L26 31L28 31L28 32L26 32L26 35L28 35L28 34L29 34L29 33L31 33L31 32L32 32L32 34L31 34L31 35L30 35L30 36L32 36L32 37L28 37L28 36L25 36L25 35L24 35L24 36L25 36L25 37L26 37L26 38L25 38L25 40L27 40L27 37L28 37L28 38L32 38L32 39L29 39L29 40L32 40L32 39L33 39L33 40L35 40L35 39L36 39L36 38L35 38L35 37L36 37L36 36L41 36L41 35L42 35L42 34L41 34L41 33L42 33L42 32L41 32L41 31L42 31L42 30L41 30L41 29L40 29L40 28L41 28L41 27L42 27L42 26L41 26L41 25L43 25L43 24L41 24L41 25L39 25L39 26L38 26L38 27L35 27L35 29L33 29L33 28L31 28L31 26L30 26L30 28L29 28L29 25L30 25L30 24L31 24L31 25L32 25L32 27L33 27L33 25L34 25L34 26L35 26L35 25L34 25L34 24L36 24L36 22L35 22L35 21L36 21L36 19L35 19L35 20L34 20L34 18L35 18L35 17L34 17L34 15L33 15L33 16L32 16L32 19L30 19L30 20L29 20L29 21L30 21L30 22L28 22L28 23L30 23L30 24L29 24L29 25L27 25L27 21L28 21L28 19L27 19L27 18L28 18L28 17L29 17L29 18L30 18L30 17L29 17L29 16L30 16L30 15L31 15L31 14L30 14L30 13L31 13L31 12L32 12L32 11L33 11L33 10L35 10L35 11L37 11L37 10L39 10L39 9L37 9L37 8L35 8L35 9L34 9L34 6L33 6L33 8L31 8L31 7L32 7L32 6L31 6L31 5L32 5L32 4L31 4L31 3L30 3L30 4L31 4L31 5L30 5L30 6L29 6L29 5L27 5L27 4L26 4L26 3L25 3L25 4L26 4L26 6L25 6L25 8L28 8L28 9L29 9L29 8L31 8L31 9L32 9L32 11L31 11L31 10L27 10L27 9L26 9L26 10L25 10L25 9L22 9L22 10L21 10L21 9L20 9L20 8L19 8L19 7L20 7L20 6L19 6L19 5L20 5L20 3L21 3L21 2L20 2L20 1L19 1L19 2L18 2L18 1L17 1L17 7L16 7L16 6L15 6L15 7L14 7L14 5L16 5L16 4L14 4L14 3L13 3L13 2L14 2L14 1ZM15 1L15 3L16 3L16 1ZM19 2L19 3L20 3L20 2ZM28 3L28 4L29 4L29 3ZM21 5L21 8L24 8L24 5ZM11 6L11 7L12 7L12 6ZM18 6L18 7L19 7L19 6ZM22 6L22 7L23 7L23 6ZM26 6L26 7L27 7L27 6ZM28 6L28 7L29 7L29 6ZM30 6L30 7L31 7L31 6ZM18 8L18 9L19 9L19 11L20 11L20 9L19 9L19 8ZM0 9L0 10L1 10L1 9ZM12 9L12 10L13 10L13 9ZM36 9L36 10L37 10L37 9ZM6 10L6 11L7 11L7 10ZM0 11L0 13L1 13L1 11ZM8 11L8 12L6 12L6 13L8 13L8 14L9 14L9 11ZM17 11L17 12L16 12L16 13L18 13L18 15L17 15L17 14L15 14L15 15L16 15L16 16L14 16L14 17L13 17L13 20L14 20L14 18L15 18L15 17L18 17L18 18L19 18L19 17L20 17L20 16L22 16L22 15L20 15L20 13L21 13L21 12L20 12L20 13L19 13L19 12L18 12L18 11ZM22 11L22 13L23 13L23 14L24 14L24 12L25 12L25 11L24 11L24 12L23 12L23 11ZM30 11L30 12L29 12L29 13L28 13L28 12L26 12L26 14L25 14L25 16L23 16L23 17L21 17L21 18L23 18L23 19L25 19L25 20L26 20L26 21L27 21L27 20L26 20L26 19L25 19L25 16L26 16L26 18L27 18L27 17L28 17L28 15L30 15L30 14L29 14L29 13L30 13L30 12L31 12L31 11ZM5 14L5 15L7 15L7 16L6 16L6 17L7 17L7 16L8 16L8 15L7 15L7 14ZM27 14L27 15L26 15L26 16L27 16L27 15L28 15L28 14ZM2 15L2 16L3 16L3 15ZM19 15L19 16L20 16L20 15ZM37 15L37 16L36 16L36 17L38 17L38 18L37 18L37 20L38 20L38 18L40 18L40 19L41 19L41 18L44 18L44 17L43 17L43 16L42 16L42 17L41 17L41 16L38 16L38 15ZM9 16L9 17L10 17L10 16ZM23 17L23 18L24 18L24 17ZM40 17L40 18L41 18L41 17ZM1 18L1 19L2 19L2 20L0 20L0 21L2 21L2 20L3 20L3 19L2 19L2 18ZM6 19L6 20L7 20L7 19ZM32 19L32 20L31 20L31 21L32 21L32 20L33 20L33 19ZM5 21L5 24L8 24L8 21ZM21 21L21 24L24 24L24 21ZM33 21L33 22L34 22L34 23L33 23L33 24L34 24L34 23L35 23L35 22L34 22L34 21ZM37 21L37 24L40 24L40 21ZM6 22L6 23L7 23L7 22ZM15 22L15 23L17 23L17 22ZM22 22L22 23L23 23L23 22ZM30 22L30 23L32 23L32 22ZM38 22L38 23L39 23L39 22ZM41 22L41 23L42 23L42 22ZM13 24L13 26L12 26L12 25L10 25L10 26L9 26L9 28L10 28L10 26L12 26L12 27L14 27L14 28L16 28L16 29L15 29L15 30L14 30L14 31L16 31L16 30L17 30L17 32L18 32L18 28L16 28L16 27L17 27L17 25L15 25L15 24ZM18 24L18 25L19 25L19 24ZM23 25L23 26L24 26L24 25ZM36 25L36 26L37 26L37 25ZM3 26L3 27L4 27L4 26ZM14 26L14 27L15 27L15 26ZM39 26L39 27L38 27L38 30L36 30L36 31L38 31L38 30L39 30L39 31L40 31L40 30L39 30L39 27L40 27L40 26ZM6 28L6 29L7 29L7 28ZM11 28L11 29L12 29L12 30L13 30L13 29L12 29L12 28ZM28 28L28 29L29 29L29 28ZM30 28L30 29L31 29L31 30L29 30L29 32L30 32L30 31L31 31L31 30L32 30L32 32L33 32L33 33L35 33L35 34L34 34L34 35L35 35L35 36L33 36L33 35L32 35L32 36L33 36L33 37L35 37L35 36L36 36L36 35L35 35L35 34L37 34L37 35L38 35L38 34L39 34L39 35L40 35L40 34L39 34L39 33L40 33L40 32L39 32L39 33L38 33L38 32L36 32L36 33L35 33L35 30L32 30L32 29L31 29L31 28ZM10 30L10 31L11 31L11 30ZM19 30L19 32L20 32L20 30ZM6 31L6 32L7 32L7 31ZM22 31L22 32L23 32L23 33L22 33L22 34L23 34L23 33L24 33L24 31ZM33 31L33 32L34 32L34 31ZM13 32L13 33L14 33L14 32ZM27 33L27 34L28 34L28 33ZM37 33L37 34L38 34L38 33ZM20 35L20 36L21 36L21 35ZM42 36L42 37L41 37L41 39L43 39L43 38L44 38L44 37L43 37L43 36ZM21 37L21 40L24 40L24 37ZM37 37L37 40L40 40L40 37ZM42 37L42 38L43 38L43 37ZM22 38L22 39L23 39L23 38ZM33 38L33 39L35 39L35 38ZM38 38L38 39L39 39L39 38ZM42 40L42 41L41 41L41 42L43 42L43 40ZM17 41L17 42L18 42L18 44L20 44L20 42L21 42L21 43L24 43L24 44L25 44L25 43L26 43L26 41L25 41L25 42L21 42L21 41L20 41L20 42L18 42L18 41ZM28 41L28 42L29 42L29 43L30 43L30 42L31 42L31 41ZM35 43L35 44L36 44L36 43ZM10 44L10 45L11 45L11 44ZM38 44L38 45L39 45L39 44ZM0 0L0 7L7 7L7 0ZM1 1L1 6L6 6L6 1ZM2 2L2 5L5 5L5 2ZM38 0L38 7L45 7L45 0ZM39 1L39 6L44 6L44 1ZM40 2L40 5L43 5L43 2ZM0 38L0 45L7 45L7 38ZM1 39L1 44L6 44L6 39ZM2 40L2 43L5 43L5 40Z" fill="#000000"/></g></g></svg>
